<?xml version="1.0" encoding="UTF-8"?>
<svg id="Layer_1" data-name="Layer 1" xmlns="http://www.w3.org/2000/svg" viewBox="0 0 24.9 24.9">
  <defs>
    <style>
      .cls-1, .cls-2 {
        stroke-width: 0px;
      }

      .cls-2 {
        fill: #ff9800;
      }
    </style>
  </defs>
  <circle class="cls-2" cx="12.45" cy="12.45" r="12.45"/>
  <path class="cls-1" d="M18.57,12.23c-.03-.07-.07-.13-.12-.18h0s0,0,0,0l-3.5-3.5c-.22-.22-.58-.22-.8,0-.22.22-.22.58,0,.8l2.54,2.54H6.85c-.31,0-.56.25-.56.56s.25.56.56.56h9.84l-2.54,2.54c-.22.22-.22.58,0,.8.22.22.58.22.8,0l3.5-3.5c.05-.05.09-.11.12-.18.06-.14.06-.29,0-.43Z"/>
</svg>